<?xml version="1.0" encoding="utf-8"?>
<!-- Generator: Adobe Illustrator 19.1.0, SVG Export Plug-In . SVG Version: 6.00 Build 0)  -->
<svg version="1.1" id="Layer_1" xmlns="http://www.w3.org/2000/svg" xmlns:xlink="http://www.w3.org/1999/xlink" x="0px" y="0px"
	 viewBox="0 0 841.9 595.3" enable-background="new 0 0 841.9 595.3" xml:space="preserve">
<polygon fill="#E74011" points="250.1,265.5 217.3,329.7 256.5,392.6 292.5,392.8 253.2,329.9 286.1,265.7 "/>
<path fill="#E74011" d="M376.5,393v-7.6c-8,5.4-19.4,9-33,9c-25,0-44.7-12.2-44.7-43v-87.9h32.7v87.1c0,12,7.7,18,20.8,18
	c14.6,0,24.1-7.1,24.1-18.8v-86.3h32.7V393H376.5z"/>
<path fill="#E74011" d="M490.8,291.1c-15.5,0-27.7,9.5-27.7,22v35.1c0,14.2,6.3,24.8,27.7,24.8c23.2,0,33.6-16.1,33.6-40.6
	C524.5,307.7,512.5,291.1,490.8,291.1 M492.6,398.8c-43.2,0-62.2-20.7-62.2-48.4V201.2h32.7v75.1c7.4-5.4,16.7-9.8,33.6-9.8
	c35.7,0,61.9,23.9,61.9,65.9C558.7,371.9,533.7,398.8,492.6,398.8"/>
<path fill="#E74011" d="M634.4,291.1c-15.8,0-26.5,10.9-28.3,25.9h56.6C662.7,302.2,650.8,291.1,634.4,291.1 M605.2,339.2
	c0.9,20.4,13.4,33.7,33.6,33.7c20.5,0,37.5-4.9,49.1-10.6v28.3c-7.7,3.5-21.1,8.2-49.4,8.2c-35.7,0-67.6-17.1-67.6-65
	c0-45.7,29.8-67.2,63.4-67.2c38.4,0,62.5,24.2,62.5,60.1v12.5L605.2,339.2L605.2,339.2z"/>
<polygon fill="#E74011" points="243.8,392.5 204.6,329.6 237.4,265.4 201.5,265.2 178,311.2 178,310.8 178,196.7 145.2,196.7 
	145.2,393 178,393 178,344.3 207.9,392.3 "/>
</svg>
