<?xml version="1.0" encoding="utf-8"?>
<!-- Generator: Adobe Illustrator 19.1.0, SVG Export Plug-In . SVG Version: 6.00 Build 0)  -->
<svg version="1.1" id="Layer_1" xmlns="http://www.w3.org/2000/svg" xmlns:xlink="http://www.w3.org/1999/xlink" x="0px" y="0px"
	 viewBox="0 0 841.9 595.3" enable-background="new 0 0 841.9 595.3" xml:space="preserve">
<g>
	<path fill="#E74011" d="M527.4,414.3h-213c-5.6,0-10.2-4.6-10.2-10.2v-213c0-5.6,4.6-10.2,10.2-10.2h213c5.6,0,10.2,4.6,10.2,10.2
		v213C537.6,409.7,533,414.3,527.4,414.3z"/>
	<polygon fill="#FFFFFF" points="452,276.5 423.8,331.6 457.4,385.6 488.3,385.7 454.6,331.8 482.8,276.7 	"/>
	<polygon fill="#FFFFFF" points="446.6,385.4 412.9,331.5 441.1,276.4 410.2,276.2 390.1,315.6 390.1,315.3 390.1,217.5 362,217.5 
		362,385.9 390.1,385.9 390.1,344.1 415.7,385.3 	"/>
</g>
</svg>
