<?xml version="1.0" encoding="UTF-8" standalone="no"?>
<!-- Generator: Adobe Illustrator 19.1.0, SVG Export Plug-In . SVG Version: 6.00 Build 0)  -->

<svg
   xmlns:dc="http://purl.org/dc/elements/1.1/"
   xmlns:cc="http://creativecommons.org/ns#"
   xmlns:rdf="http://www.w3.org/1999/02/22-rdf-syntax-ns#"
   xmlns:svg="http://www.w3.org/2000/svg"
   xmlns="http://www.w3.org/2000/svg"
   xmlns:sodipodi="http://sodipodi.sourceforge.net/DTD/sodipodi-0.dtd"
   xmlns:inkscape="http://www.inkscape.org/namespaces/inkscape"
   version="1.1"
   id="Layer_1"
   x="0px"
   y="0px"
   viewBox="0 0 233.1782 233.4"
   enable-background="new 0 0 841.9 595.3"
   xml:space="preserve"
   sodipodi:docname="sc-apps-kube_icon.svg"
   width="233.39999"
   height="233.39999"
   inkscape:version="0.92.4 5da689c313, 2019-01-14"><metadata
   id="metadata15"><rdf:RDF><cc:Work
       rdf:about=""><dc:format>image/svg+xml</dc:format><dc:type
         rdf:resource="http://purl.org/dc/dcmitype/StillImage" /><dc:title></dc:title></cc:Work></rdf:RDF></metadata><defs
   id="defs13" /><sodipodi:namedview
   pagecolor="#ffffff"
   bordercolor="#666666"
   borderopacity="1"
   objecttolerance="10"
   gridtolerance="10"
   guidetolerance="10"
   inkscape:pageopacity="0"
   inkscape:pageshadow="2"
   inkscape:window-width="1920"
   inkscape:window-height="1016"
   id="namedview11"
   showgrid="false"
   viewbox-width="841.1"
   fit-margin-top="0"
   fit-margin-left="0"
   fit-margin-right="0"
   fit-margin-bottom="0"
   inkscape:zoom="0.39643878"
   inkscape:cx="121.39491"
   inkscape:cy="116.65"
   inkscape:window-x="0"
   inkscape:window-y="0"
   inkscape:window-maximized="1"
   inkscape:current-layer="Layer_1" />
<g
   id="g8"
   transform="translate(-304.60002,-180.9)">
	<path
   d="m 527.4,414.3 h -213 c -5.6,0 -10.2,-4.6 -10.2,-10.2 v -213 c 0,-5.6 4.6,-10.2 10.2,-10.2 h 213 c 5.6,0 10.2,4.6 10.2,10.2 v 213 c 0,5.6 -4.6,10.2 -10.2,10.2 z"
   id="path2"
   inkscape:connector-curvature="0"
   style="fill:#e74011" />
	<polygon
   points="454.6,331.8 482.8,276.7 452,276.5 423.8,331.6 457.4,385.6 488.3,385.7 "
   id="polygon4"
   style="fill:#ffffff" />
	<polygon
   points="390.1,315.6 390.1,315.3 390.1,217.5 362,217.5 362,385.9 390.1,385.9 390.1,344.1 415.7,385.3 446.6,385.4 412.9,331.5 441.1,276.4 410.2,276.2 "
   id="polygon6"
   style="fill:#ffffff" />
</g>
</svg>